<?xml version="1.0" encoding="utf-8"?>
<svg version="1.1" id="logo-icon" xmlns="http://www.w3.org/2000/svg" xmlns:xlink="http://www.w3.org/1999/xlink" viewBox="0 0 595.78 166.2"><defs><style>.cls-1{fill:#e350cc;}.cls-2{fill:#50e3c2;}.cls-3{fill:#ffce1f;}</style></defs><path d="M132.37,119.83c2.95-4,8.58-6.28,13.31-6.18a9,9,0,0,1,5.6,2.18,6.89,6.89,0,0,1,2.33,5.24c.1,5.82-2.62,11.79-5.74,17.13a92.62,92.62,0,0,1-13,17.1c-5.63,5.9,3.32,14.88,9,9a100.27,100.27,0,0,0,17-23.29c3.91-7.68,7.21-17,4.59-25.64-2.71-8.93-11.33-14.43-20.47-14.37-9.41.06-18,5-23.5,12.47-2,2.76-.45,7.08,2.28,8.68,3.22,1.88,6.63.49,8.67-2.28Z" class="cls-1"></path><path d="M108.66,93.81a28.2,28.2,0,0,1,13.24-7.35c3.51-.73,7.12-.3,8.68,3.2,1.26,2.82.08,7.33-1.4,10.84a65.5,65.5,0,0,1-7.76,12.93c-2,2.77-.47,7.07,2.28,8.68,3.21,1.87,6.65.5,8.67-2.28C139.94,109.45,149.18,93.08,140,81c-10.5-13.89-30-5.73-40.32,3.89-6,5.59,3,14.54,9,9Z" class="cls-1"></path><path d="M78.87,67.86a36.52,36.52,0,0,1,12.55-6.48,23.15,23.15,0,0,1,6.81-1.08,12.63,12.63,0,0,1,5.22,1c10.2,5,1.79,17.92-3.76,23.55-5.73,5.82,3.23,14.79,9,9,6-6.14,11.1-13.82,12.11-22.54a21,21,0,0,0-9.64-20.19C98,42.84,80.71,50.23,69.91,58.9c-2.67,2.14-2.24,6.73,0,9,2.64,2.64,6.29,2.15,9,0Z" class="cls-1"></path><path d="M64.3,119.83c3-4,8.58-6.28,13.31-6.18a9,9,0,0,1,5.61,2.18,6.89,6.89,0,0,1,2.33,5.24c.09,5.82-2.63,11.79-5.75,17.13a93,93,0,0,1-13,17.1c-5.63,5.9,3.32,14.88,9,9a100.6,100.6,0,0,0,17-23.29c3.9-7.68,7.21-17,4.59-25.64C94.61,106.4,86,100.9,76.86,101c-9.42.06-18,5-23.5,12.47-2,2.76-.46,7.08,2.27,8.68,3.22,1.88,6.64.49,8.67-2.28Z" class="cls-2"></path><path d="M40.59,93.81a28.3,28.3,0,0,1,13.24-7.35c3.51-.73,7.12-.3,8.69,3.2,1.26,2.82.08,7.33-1.41,10.84a65.94,65.94,0,0,1-7.75,12.93c-2,2.77-.47,7.07,2.27,8.68,3.21,1.87,6.65.5,8.67-2.28C71.88,109.45,81.11,93.08,71.94,81c-10.5-13.89-30-5.73-40.31,3.89-6,5.59,3,14.54,9,9Z" class="cls-2"></path><path d="M10.81,67.86a36.52,36.52,0,0,1,12.55-6.48,23,23,0,0,1,6.81-1.08,12.55,12.55,0,0,1,5.21,1c10.2,5,1.79,17.92-3.75,23.55-5.73,5.82,3.22,14.79,9,9,6-6.14,11.1-13.82,12.11-22.54a21,21,0,0,0-9.64-20.19C30,42.84,12.64,50.23,1.84,58.9c-2.67,2.14-2.23,6.73,0,9,2.64,2.64,6.29,2.15,9,0Z" class="cls-2"></path><g id="Path-7"><rect transform="translate(-2.28 16.38) rotate(-25.75)" rx="4.97" height="21.85" width="9.93" y="2.25" x="29.72" class="cls-3"></rect></g><g id="Path-12"><rect transform="translate(52.15 81.88) rotate(-81.86)" rx="4.97" height="9.93" width="21.85" y="5.9" x="62.36" class="cls-3"></rect></g><g id="Path-19"><rect transform="translate(12.76 81.05) rotate(-44.84)" rx="4.97" height="9.93" width="19.87" y="20.1" x="94.66" class="cls-3"></rect></g><path fill="#FFF" d="M270.61,43.42a42.45,42.45,0,0,1,16.08,3.06A28.35,28.35,0,0,1,299,55.84,24.43,24.43,0,0,1,303.68,71q0,10.77-4.27,15.86a31.23,31.23,0,0,1-11,8.23q.6.31,6.14,2.62t9.13,8.91q3.58,6.59,3.59,16.31A22.63,22.63,0,0,1,302,138a33.65,33.65,0,0,1-13.17,9.5,40.58,40.58,0,0,1-15.49,3.22H231l.15-107.29ZM254.15,88.16l18.4-.3a13.63,13.63,0,0,0,9.28-3.74Q286,80.38,286,72.9q0-7.79-5.24-11.08a21.51,21.51,0,0,0-11.67-3.29h-19.9l.15,29.78C251.35,88.31,253,88.26,254.15,88.16Zm20.5,46.69a14.29,14.29,0,0,0,10.1-4.19q4.41-4.18,4.41-11.67,0-7.18-4.56-11.15t-12.35-4l-22.59.15v31.13Q264.32,134.85,274.65,134.85Z" class="cls-4"></path><path fill="#FFF" d="M332.56,150.71l-16.31-.15V77.39h16.31V88.31A19.93,19.93,0,0,1,337.42,81a24.68,24.68,0,0,1,8.46-4.79,24.74,24.74,0,0,1,18.85,1.5L360.09,92.5a16.32,16.32,0,0,0-7-1.35,23.74,23.74,0,0,0-8.46,1.57,17.73,17.73,0,0,0-7,4.72,16.61,16.61,0,0,0-3.6,6.21,33.82,33.82,0,0,0-1.27,8.3c-.15,3.3-.22,8.73-.22,16.32Z" class="cls-4"></path><path fill="#FFF" d="M380.37,150a22.75,22.75,0,0,1-9.28-8.16,21.68,21.68,0,0,1-3.37-12q0-9.72,6.14-15.56t17.66-7.78a100.7,100.7,0,0,1,15.26-1.35,61.43,61.43,0,0,1,9,.6,12,12,0,0,0,.75-4.34,11.64,11.64,0,0,0-2.4-7.11c-1.59-2.14-4.14-3.67-7.63-4.56a24.31,24.31,0,0,0-6.43-.9,16.92,16.92,0,0,0-9.43,2.62,15.37,15.37,0,0,0-6,8L370,94.15q3.13-9.59,13.77-15.57a28.58,28.58,0,0,1,8.08-3.06,43,43,0,0,1,9.87-1.13,35.8,35.8,0,0,1,13.47,2.25A28,28,0,0,1,429,87a25.67,25.67,0,0,1,4.87,14.82l.45,49.08H417.86l-.6-9.43a27.57,27.57,0,0,1-9.51,8,30.78,30.78,0,0,1-27.38.6Zm33.3-17.73a17.09,17.09,0,0,0,4-10.78,9.51,9.51,0,0,0-.15-1.94,31.83,31.83,0,0,1-3.6-.3q-1.79-.15-4.71-.3c-1.94-.1-4.17-.15-6.66-.15q-8.54,0-13.24,2.24t-4.72,8.23a9.06,9.06,0,0,0,3.67,7.41,14.51,14.51,0,0,0,9.35,2.92,18.43,18.43,0,0,0,4.79-.6A19.35,19.35,0,0,0,413.67,132.31Z" class="cls-4"></path><path fill="#FFF" d="M437.31,76.94l19-.15,20.2,52.67,20.66-52.67,18.4.15L484,150.86H468.88Z" class="cls-4"></path><path fill="#FFF" d="M556.58,75a39.21,39.21,0,1,0,39.2,39.21A39.21,39.21,0,0,0,556.58,75Zm0,63.22a24,24,0,1,1,24-24A24,24,0,0,1,556.58,138.21Z" class="cls-4"></path></svg>
