<?xml version="1.0" encoding="utf-8"?>
<!-- Generator: Adobe Illustrator 23.0.1, SVG Export Plug-In . SVG Version: 6.00 Build 0)  -->
<svg version="1.1" id="Capa_1" xmlns="http://www.w3.org/2000/svg" xmlns:xlink="http://www.w3.org/1999/xlink" x="0px" y="0px"
	 viewBox="0 0 148 130.9" style="enable-background:new 0 0 148 130.9;" xml:space="preserve">
<style type="text/css">
	.st0{fill:#FFFFFF;}
</style>
<title>back_button_transparente</title>
<g id="Layer_2">
	<g id="vector">
		<path class="st0" d="M137.1,54.2H38.3l35-35C83.5,9,67.6-6.9,57.4,3.3L3.8,56.9c-0.1,0-0.1,0.1-0.2,0.2l-0.4,0.4
			C-1,61.8-1.1,68.7,3,73.2l0,0l0.2,0.2c0.1,0.1,0.2,0.2,0.3,0.3s0.2,0.2,0.4,0.4l53.5,53.5c10.3,10.2,26.2-5.7,15.9-15.9l-35-35
			h98.8C151.6,76.7,151.6,54.2,137.1,54.2z"/>
	</g>
</g>
</svg>
