<?xml version="1.0" encoding="utf-8"?>
<!-- Generator: Adobe Illustrator 23.0.1, SVG Export Plug-In . SVG Version: 6.00 Build 0)  -->
<svg version="1.1" id="Capa_1" xmlns="http://www.w3.org/2000/svg" xmlns:xlink="http://www.w3.org/1999/xlink" x="0px" y="0px"
	 viewBox="0 0 148 130.9" style="enable-background:new 0 0 148 130.9;" xml:space="preserve">
<style type="text/css">
	.st0{fill:#FFFFFF;}
	.st1{fill:#006FE1;}
</style>
<title>back_button_transparente</title>
<circle class="st0" cx="73.4" cy="65.4" r="65.4"/>
<path class="st1" d="M43.7,107.5V93.3l29.8-26.1c2.2-2,4.1-3.9,5.7-5.5c1.6-1.7,2.8-3.4,3.6-5.1C83.6,54.9,84,53,84,51
	c0-2.3-0.5-4.2-1.5-5.8c-1-1.6-2.3-2.9-4.1-3.7c-1.7-0.9-3.7-1.3-5.9-1.3c-2.3,0-4.2,0.5-5.9,1.4c-1.7,0.9-3,2.2-4,3.9
	c-0.9,1.7-1.4,3.8-1.4,6.3H42.5c0-5.6,1.2-10.3,3.7-14.4c2.5-4,6-7.1,10.5-9.3c4.5-2.2,9.8-3.3,15.8-3.3c6.2,0,11.6,1,16.1,3.1
	c4.6,2.1,8.1,5,10.6,8.7c2.5,3.7,3.8,8,3.8,12.9c0,3.1-0.6,6.2-1.9,9.2c-1.2,3.1-3.5,6.4-6.7,10.1c-3.2,3.7-7.8,8.1-13.7,13.3
	l-9.8,9v0.5h33.1v15.9H43.7z"/>
</svg>
