<?xml version="1.0" encoding="utf-8"?>
<!-- Generator: Adobe Illustrator 23.0.1, SVG Export Plug-In . SVG Version: 6.00 Build 0)  -->
<svg version="1.1" id="Capa_1" xmlns="http://www.w3.org/2000/svg" xmlns:xlink="http://www.w3.org/1999/xlink" x="0px" y="0px"
	 viewBox="0 0 148 130.9" style="enable-background:new 0 0 148 130.9;" xml:space="preserve">
<style type="text/css">
	.st0{fill:#006FE1;}
</style>
<title>back_button_transparente</title>
<g id="Layer_2">
	<g id="vector">
		<path class="st0" d="M10.9,76.7h98.8l-35,35c-10.2,10.2,5.7,26.1,15.9,15.9L144.2,74c0.1,0,0.1-0.1,0.2-0.2l0.4-0.4
			c4.2-4.3,4.3-11.2,0.2-15.7l0,0l-0.2-0.2c-0.1-0.1-0.2-0.2-0.3-0.3s-0.2-0.2-0.4-0.4L90.6,3.3C80.3-6.9,64.4,9,74.7,19.2l35,35
			H10.9C-3.6,54.2-3.6,76.7,10.9,76.7z"/>
	</g>
</g>
</svg>
